<svg xmlns="http://www.w3.org/2000/svg" viewBox="0 0 1080 700" font-family="-apple-system,BlinkMacSystemFont,'Segoe UI',Roboto,sans-serif"><defs><marker id="ah" markerWidth="26" markerHeight="26" refX="3" refY="13" orient="auto" markerUnits="userSpaceOnUse"><polygon points="0,2 24,13 0,24" fill="#3b6fb0"/></marker></defs><rect width="1080" height="700" fill="#ffffff"/><line x1="460" y1="50.0" x2="460" y2="650" stroke="#333" stroke-width="1.3" stroke-dasharray="5 6"/><path d="M 60.0 295.8 L 62.5 295.6 L 65.0 295.3 L 67.5 295.1 L 70.0 294.8 L 72.5 294.6 L 75.0 294.3 L 77.5 294.0 L 80.0 293.7 L 82.5 293.4 L 85.0 293.1 L 87.5 292.7 L 90.0 292.4 L 92.5 292.0 L 95.0 291.6 L 97.5 291.2 L 100.0 290.8 L 102.5 290.4 L 105.0 290.0 L 107.5 289.5 L 110.0 289.0 L 112.5 288.5 L 115.0 288.0 L 117.5 287.5 L 120.0 286.9 L 122.5 286.3 L 125.0 285.7 L 127.5 285.1 L 130.0 284.5 L 132.5 283.8 L 135.0 283.1 L 137.5 282.4 L 140.0 281.7 L 142.5 280.9 L 145.0 280.1 L 147.5 279.3 L 150.0 278.5 L 152.5 277.6 L 155.0 276.7 L 157.5 275.8 L 160.0 274.8 L 162.5 273.9 L 165.0 272.8 L 167.5 271.8 L 170.0 270.7 L 172.5 269.6 L 175.0 268.5 L 177.5 267.4 L 180.0 266.2 L 182.5 264.9 L 185.0 263.7 L 187.5 262.4 L 190.0 261.1 L 192.5 259.7 L 195.0 258.3 L 197.5 256.9 L 200.0 255.4 L 202.5 253.9 L 205.0 252.4 L 207.5 250.8 L 210.0 249.2 L 212.5 247.6 L 215.0 245.9 L 217.5 244.2 L 220.0 242.5 L 222.5 240.7 L 225.0 238.9 L 227.5 237.0 L 230.0 235.2 L 232.5 233.2 L 235.0 231.3 L 237.5 229.3 L 240.0 227.3 L 242.5 225.2 L 245.0 223.1 L 247.5 221.0 L 250.0 218.8 L 252.5 216.6 L 255.0 214.4 L 257.5 212.2 L 260.0 209.9 L 262.5 207.6 L 265.0 205.2 L 267.5 202.9 L 270.0 200.5 L 272.5 198.0 L 275.0 195.6 L 277.5 193.1 L 280.0 190.6 L 282.5 188.1 L 285.0 185.5 L 287.5 183.0 L 290.0 180.4 L 292.5 177.8 L 295.0 175.2 L 297.5 172.5 L 300.0 169.9 L 302.5 167.2 L 305.0 164.6 L 307.5 161.9 L 310.0 159.2 L 312.5 156.5 L 315.0 153.8 L 317.5 151.1 L 320.0 148.4 L 322.5 145.7 L 325.0 143.0 L 327.5 140.3 L 330.0 137.6 L 332.5 134.9 L 335.0 132.2 L 337.5 129.5 L 340.0 126.9 L 342.5 124.2 L 345.0 121.6 L 347.5 119.0 L 350.0 116.4 L 352.5 113.8 L 355.0 111.3 L 357.5 108.8 L 360.0 106.3 L 362.5 103.8 L 365.0 101.4 L 367.5 99.0 L 370.0 96.7 L 372.5 94.4 L 375.0 92.1 L 377.5 89.8 L 380.0 87.7 L 382.5 85.5 L 385.0 83.4 L 387.5 81.4 L 390.0 79.4 L 392.5 77.4 L 395.0 75.5 L 397.5 73.7 L 400.0 71.9 L 402.5 70.2 L 405.0 68.6 L 407.5 67.0 L 410.0 65.4 L 412.5 64.0 L 415.0 62.6 L 417.5 61.3 L 420.0 60.0 L 422.5 58.8 L 425.0 57.7 L 427.5 56.6 L 430.0 55.7 L 432.5 54.8 L 435.0 54.0 L 437.5 53.2 L 440.0 52.5 L 442.5 51.9 L 445.0 51.4 L 447.5 51.0 L 450.0 50.6 L 452.5 50.4 L 455.0 50.2 L 457.5 50.0 L 460.0 50.0 L 462.5 50.0 L 465.0 50.2 L 467.5 50.4 L 470.0 50.6 L 472.5 51.0 L 475.0 51.4 L 477.5 51.9 L 480.0 52.5 L 482.5 53.2 L 485.0 54.0 L 487.5 54.8 L 490.0 55.7 L 492.5 56.6 L 495.0 57.7 L 497.5 58.8 L 500.0 60.0 L 502.5 61.3 L 505.0 62.6 L 507.5 64.0 L 510.0 65.4 L 512.5 67.0 L 515.0 68.6 L 517.5 70.2 L 520.0 71.9 L 522.5 73.7 L 525.0 75.5 L 527.5 77.4 L 530.0 79.4 L 532.5 81.4 L 535.0 83.4 L 537.5 85.5 L 540.0 87.7 L 542.5 89.8 L 545.0 92.1 L 547.5 94.4 L 550.0 96.7 L 552.5 99.0 L 555.0 101.4 L 557.5 103.8 L 560.0 106.3 L 562.5 108.8 L 565.0 111.3 L 567.5 113.8 L 570.0 116.4 L 572.5 119.0 L 575.0 121.6 L 577.5 124.2 L 580.0 126.9 L 582.5 129.5 L 585.0 132.2 L 587.5 134.9 L 590.0 137.6 L 592.5 140.3 L 595.0 143.0 L 597.5 145.7 L 600.0 148.4 L 602.5 151.1 L 605.0 153.8 L 607.5 156.5 L 610.0 159.2 L 612.5 161.9 L 615.0 164.6 L 617.5 167.2 L 620.0 169.9 L 622.5 172.5 L 625.0 175.2 L 627.5 177.8 L 630.0 180.4 L 632.5 183.0 L 635.0 185.5 L 637.5 188.1 L 640.0 190.6 L 642.5 193.1 L 645.0 195.6 L 647.5 198.0 L 650.0 200.5 L 652.5 202.9 L 655.0 205.2 L 657.5 207.6 L 660.0 209.9 L 662.5 212.2 L 665.0 214.4 L 667.5 216.6 L 670.0 218.8 L 672.5 221.0 L 675.0 223.1 L 677.5 225.2 L 680.0 227.3 L 682.5 229.3 L 685.0 231.3 L 687.5 233.2 L 690.0 235.2 L 692.5 237.0 L 695.0 238.9 L 697.5 240.7 L 700.0 242.5 L 702.5 244.2 L 705.0 245.9 L 707.5 247.6 L 710.0 249.2 L 712.5 250.8 L 715.0 252.4 L 717.5 253.9 L 720.0 255.4 L 722.5 256.9 L 725.0 258.3 L 727.5 259.7 L 730.0 261.1 L 732.5 262.4 L 735.0 263.7 L 737.5 264.9 L 740.0 266.2 L 742.5 267.4 L 745.0 268.5 L 747.5 269.6 L 750.0 270.7 L 752.5 271.8 L 755.0 272.8 L 757.5 273.9 L 760.0 274.8 L 762.5 275.8 L 765.0 276.7 L 767.5 277.6 L 770.0 278.5 L 772.5 279.3 L 775.0 280.1 L 777.5 280.9 L 780.0 281.7 L 782.5 282.4 L 785.0 283.1 L 787.5 283.8 L 790.0 284.5 L 792.5 285.1 L 795.0 285.7 L 797.5 286.3 L 800.0 286.9 L 802.5 287.5 L 805.0 288.0 L 807.5 288.5 L 810.0 289.0 L 812.5 289.5 L 815.0 290.0 L 817.5 290.4 L 820.0 290.8 L 822.5 291.2 L 825.0 291.6 L 827.5 292.0 L 830.0 292.4 L 832.5 292.7 L 835.0 293.1 L 837.5 293.4 L 840.0 293.7 L 842.5 294.0 L 845.0 294.3 L 847.5 294.6 L 850.0 294.8 L 852.5 295.1 L 855.0 295.3 L 857.5 295.6 L 860.0 295.8" fill="none" stroke="#555" stroke-width="2"/><line x1="40" y1="300" x2="800" y2="300" stroke="#222" stroke-width="1.8"/><line x1="278.0" y1="300" x2="278.0" y2="208" stroke="#5b8def" stroke-width="2.2"/><line x1="642.0" y1="300" x2="642.0" y2="208" stroke="#5b8def" stroke-width="2.2"/><line x1="278.0" y1="258" x2="642.0" y2="258" stroke="#222" stroke-width="1.3"/><polygon points="278.0,258 288.0,253 288.0,263" fill="#222"/><polygon points="642.0,258 632.0,253 632.0,263" fill="#222"/><text x="460.0" y="250" font-size="16" text-anchor="middle" font-weight="700" font-style="normal" fill="#1a1d21">Interval 1</text><text x="460" y="326" font-size="22" text-anchor="middle" font-weight="400" font-style="normal" fill="#1a1d21"><tspan font-style="italic" font-weight="700">μ</tspan></text><text x="150" y="44" font-size="21" text-anchor="middle" font-weight="700" font-style="normal" fill="#1a1d21">Population</text><text x="665" y="118" font-size="24" text-anchor="middle" font-weight="400" font-style="normal" fill="#1a1d21"><tspan font-style="italic">X</tspan> ~ <tspan font-style="italic">N</tspan>(<tspan font-style="italic">μ</tspan>, <tspan font-style="italic">σ</tspan>)</text><line x1="430" y1="450.0" x2="430" y2="650" stroke="#333" stroke-width="1.2" stroke-dasharray="5 6"/><path d="M 210.0 644.5 L 212.5 644.1 L 215.0 643.6 L 217.5 643.0 L 220.0 642.5 L 222.5 641.9 L 225.0 641.2 L 227.5 640.5 L 230.0 639.8 L 232.5 639.0 L 235.0 638.2 L 237.5 637.3 L 240.0 636.3 L 242.5 635.4 L 245.0 634.3 L 247.5 633.2 L 250.0 632.0 L 252.5 630.8 L 255.0 629.5 L 257.5 628.1 L 260.0 626.7 L 262.5 625.2 L 265.0 623.6 L 267.5 621.9 L 270.0 620.2 L 272.5 618.4 L 275.0 616.5 L 277.5 614.5 L 280.0 612.5 L 282.5 610.3 L 285.0 608.1 L 287.5 605.8 L 290.0 603.4 L 292.5 601.0 L 295.0 598.4 L 297.5 595.8 L 300.0 593.1 L 302.5 590.3 L 305.0 587.4 L 307.5 584.5 L 310.0 581.5 L 312.5 578.4 L 315.0 575.2 L 317.5 572.0 L 320.0 568.7 L 322.5 565.3 L 325.0 561.9 L 327.5 558.4 L 330.0 554.9 L 332.5 551.4 L 335.0 547.8 L 337.5 544.1 L 340.0 540.5 L 342.5 536.8 L 345.0 533.1 L 347.5 529.4 L 350.0 525.7 L 352.5 522.0 L 355.0 518.4 L 357.5 514.7 L 360.0 511.1 L 362.5 507.5 L 365.0 503.9 L 367.5 500.4 L 370.0 497.0 L 372.5 493.6 L 375.0 490.3 L 377.5 487.1 L 380.0 483.9 L 382.5 480.9 L 385.0 478.0 L 387.5 475.1 L 390.0 472.4 L 392.5 469.9 L 395.0 467.4 L 397.5 465.1 L 400.0 462.9 L 402.5 460.9 L 405.0 459.1 L 407.5 457.4 L 410.0 455.9 L 412.5 454.5 L 415.0 453.3 L 417.5 452.3 L 420.0 451.5 L 422.5 450.8 L 425.0 450.4 L 427.5 450.1 L 430.0 450.0 L 432.5 450.1 L 435.0 450.4 L 437.5 450.8 L 440.0 451.5 L 442.5 452.3 L 445.0 453.3 L 447.5 454.5 L 450.0 455.9 L 452.5 457.4 L 455.0 459.1 L 457.5 460.9 L 460.0 462.9 L 462.5 465.1 L 465.0 467.4 L 467.5 469.9 L 470.0 472.4 L 472.5 475.1 L 475.0 478.0 L 477.5 480.9 L 480.0 483.9 L 482.5 487.1 L 485.0 490.3 L 487.5 493.6 L 490.0 497.0 L 492.5 500.4 L 495.0 503.9 L 497.5 507.5 L 500.0 511.1 L 502.5 514.7 L 505.0 518.4 L 507.5 522.0 L 510.0 525.7 L 512.5 529.4 L 515.0 533.1 L 517.5 536.8 L 520.0 540.5 L 522.5 544.1 L 525.0 547.8 L 527.5 551.4 L 530.0 554.9 L 532.5 558.4 L 535.0 561.9 L 537.5 565.3 L 540.0 568.7 L 542.5 572.0 L 545.0 575.2 L 547.5 578.4 L 550.0 581.5 L 552.5 584.5 L 555.0 587.4 L 557.5 590.3 L 560.0 593.1 L 562.5 595.8 L 565.0 598.4 L 567.5 601.0 L 570.0 603.4 L 572.5 605.8 L 575.0 608.1 L 577.5 610.3 L 580.0 612.5 L 582.5 614.5 L 585.0 616.5 L 587.5 618.4 L 590.0 620.2 L 592.5 621.9 L 595.0 623.6 L 597.5 625.2 L 600.0 626.7 L 602.5 628.1 L 605.0 629.5 L 607.5 630.8 L 610.0 632.0 L 612.5 633.2 L 615.0 634.3 L 617.5 635.4 L 620.0 636.3 L 622.5 637.3 L 625.0 638.2 L 627.5 639.0 L 630.0 639.8 L 632.5 640.5 L 635.0 641.2 L 637.5 641.9 L 640.0 642.5 L 642.5 643.0 L 645.0 643.6 L 647.5 644.1 L 650.0 644.5" fill="none" stroke="#d2342f" stroke-width="2.2"/><line x1="60" y1="650" x2="800" y2="650" stroke="#222" stroke-width="1.8"/><text x="150" y="440" font-size="21" text-anchor="middle" font-weight="700" font-style="normal" fill="#1a1d21">Sample</text><text x="430" y="678" font-size="22" text-anchor="middle" font-weight="400" font-style="normal" fill="#1a1d21"><tspan><tspan text-decoration="overline" font-style="italic">X</tspan></tspan></text><path d="M 885 268 C 978 330, 978 470, 898 520" fill="none" stroke="#3b6fb0" stroke-width="9" stroke-linecap="round" marker-end="url(#ah)"/><text x="1000" y="400" font-size="17" text-anchor="start" font-weight="700" font-style="normal" fill="#3b6fb0">Sampling</text></svg>